# xmcd
#
# Track frame offsets:
#	150
#	4237
#	18551
#	32563
#	45890
#	64370
#	75277
#	93411
#	107183
#	118918
#	134638
#	149639
#	159869
#	177119
#	190413
#	196497
#	208848
#	226608
#
# Disc length: 3191 seconds
#
# Revision: 0
# Processed by: cddbd v1.5.2PL0 Copyright (c) Steve Scherf et al.
# Submitted via: audiograbber 1.83.01
#
DISCID=f50c7512
DTITLE=Some Hate Will Last - The Art of Resistance
DYEAR=2012
DGENRE=Death Metal
TTITLE0=A Setting Sun - Intro
TTITLE1=Some Hate Will Last
TTITLE2=Lost
TTITLE3=Insane Memories
TTITLE4=Lower than the Low
TTITLE5=Rules of Mass Manipulation
TTITLE6=As Hate Grows
TTITLE7=Twelve Bullets in the Head
TTITLE8=Live Fast and Die Young
TTITLE9=When Nothing Counts Anymore
TTITLE10=Deny Their Rules
TTITLE11=The Unknown Force of Inner Strength
TTITLE12=On Passion, Pain and Deliverance
TTITLE13=The Art of Resistance
TTITLE14=There will be Sadness at the End - Outro
TTITLE15=Some Hate Will Last (Acoustic)
TTITLE16=Insane Memories (Acoustic)
TTITLE17=Live fast and die young (Acoustic)
EXTD=
EXTT0=
EXTT1=
EXTT2=
EXTT3=
EXTT4=
EXTT5=
EXTT6=
EXTT7=
EXTT8=
EXTT9=
EXTT10=
EXTT11=
EXTT12=
EXTT13=
EXTT14=
EXTT15=
EXTT16=
EXTT17=
PLAYORDER=
